<svg width="691" height="691" xmlns="http://www.w3.org/2000/svg" version="1.1" clip-rule="evenodd">
    <g>
        <g id="svg_1">
            <path fill="#0191da"
                d="m335.5,0.5c105.215,-0.78939 193.715,36.8773 265.5,113c80.301,93.885 105.968,201.218 77,322c-30.052,103.049 -93.552,177.549 -190.5,223.5c-102.041,42.928 -202.708,39.928 -302,-9c-103.6021,-57.688 -164.1021,-145.521 -181.5,-263.5c-11.24826,-119.97 27.2517,-220.47 115.5,-301.5c62.274,-52.5992 134.274,-80.76591 216,-84.5zm-7,22c114.986,-2.2485 207.486,41.7515 277.5,132c57.742,82.384 75.075,172.717 52,271c-23.758,86.395 -73.925,152.562 -150.5,198.5c-88.18,48.704 -179.847,56.371 -275,23c-82.075,-32.743 -142.2416,-88.91 -180.5,-168.5c-38,-89 -38,-178 0,-267c48.274,-99.088 126.44,-160.2545 234.5,-183.5c14.072,-2.436 28.072,-4.2693 42,-5.5z"
                opacity="0.966" fill-rule="evenodd" id="svg_2" />
        </g>
        <g id="svg_3">
            <path fill="#0191da"
                d="m234.5,147.5c41.001,-0.167 82.001,0 123,0.5c42.428,4.61 70.262,27.11 83.5,67.5c1.258,5.622 2.258,11.289 3,17c0.667,25 0.667,50 0,75c-6.5,42.168 -30,70.002 -70.5,83.5c-9.178,2.43 -18.511,3.597 -28,3.5c-2.501,-26.667 -16.835,-42.834 -43,-48.5c-22.333,-0.333 -44.667,-0.667 -67,-1c-35.013,-2.566 -60.847,-19.066 -77.5,-49.5c-6.95,-15.585 -10.117,-31.918 -9.5,-49c0.251,-57.906 28.917,-90.906 86,-99z"
                opacity="0.994" id="svg_4" />
        </g>
        <g id="svg_5">
            <path fill="#0191da"
                d="m468.5,297.5c39.827,7.66 63.994,31.327 72.5,71c6.408,31.892 1.075,61.559 -16,89c-18.761,22.497 -42.928,34.33 -72.5,35.5c-21.667,0.333 -43.333,0.667 -65,1c-25.785,5.95 -39.452,22.116 -41,48.5c-47.121,-1.967 -78.954,-24.967 -95.5,-69c-1.976,-6.879 -3.309,-13.879 -4,-21c-1.019,-27.712 -0.519,-55.379 1.5,-83c18.336,-0.167 36.67,0 55,0.5c8.901,3.235 14.734,9.402 17.5,18.5c0.5,9.994 0.666,19.994 0.5,30c50.691,5.289 91.858,-11.711 123.5,-51c14.512,-21.037 22.346,-44.37 23.5,-70z"
                opacity="0.991" id="svg_6" />
        </g>
    </g>

</svg>