<svg xmlns="http://www.w3.org/2000/svg" version="1.1" xmlns:xlink="http://www.w3.org/1999/xlink"
    xmlns:svgjs="http://svgjs.dev/svgjs" width="1500" height="518" viewBox="0 0 1500 518">
    <g transform="matrix(1,0,0,1,-0.9090909090909918,-1.3796673583323695)"><svg viewBox="0 0 396 137"
            data-background-color="#ffffff" preserveAspectRatio="xMidYMid meet" height="518" width="1500"
            xmlns="http://www.w3.org/2000/svg" xmlns:xlink="http://www.w3.org/1999/xlink">
            <g id="tight-bounds" transform="matrix(1,0,0,1,0.2400000000000091,0.36489271832343206)"><svg
                    viewBox="0 0 395.52 136.27021456335314" height="136.27021456335314" width="395.52">
                    <g><svg viewBox="0 0 657.9413496963306 226.68337604475406" height="136.27021456335314"
                            width="395.52">
                            <g transform="matrix(1,0,0,1,262.42134969633054,57.58248703950319)"><svg
                                    viewBox="0 0 395.52000000000004 111.51840196574767" height="111.51840196574767"
                                    width="395.52000000000004">
                                    <g id="textblocktransform"><svg viewBox="0 0 395.52000000000004 111.51840196574767"
                                            height="111.51840196574767" width="395.52000000000004" id="textblock">
                                            <g><svg viewBox="0 0 395.52000000000004 75.6916705882353"
                                                    height="75.6916705882353" width="395.52000000000004">
                                                    <g transform="matrix(1,0,0,1,0,0)"><svg width="395.52000000000004"
                                                            viewBox="1.9 -36.25 191.23 36.6" height="75.6916705882353"
                                                            data-palette-color="#000000">
                                                            <path
                                                                d="M12.65 0.2L12.65 0.2Q11.1 0.2 9.93-0.6 8.75-1.4 8.8-3L8.8-3Q8.9-5.8 9.22-9.2 9.55-12.6 10-16.13 10.45-19.65 10.93-22.9 11.4-26.15 11.8-28.7L11.8-28.7Q10.9-28.8 10.05-28.85 9.2-28.9 8.5-28.9L8.5-28.9Q6.4-28.9 4.73-28.5 3.05-28.1 1.9-27.1L1.9-27.1Q1.9-30.25 2.43-32.23 2.95-34.2 4.38-35.1 5.8-36 8.55-36L8.55-36Q10.55-36 13.03-35.68 15.5-35.35 18.05-35 20.6-34.65 22.8-34.65L22.8-34.65Q24.6-34.65 26.03-35 27.45-35.35 28.2-36.25L28.2-36.25Q29.3-35.9 29.9-34.73 30.5-33.55 30.5-32.15L30.5-32.15Q30.5-30.9 29.95-29.73 29.4-28.55 28.2-27.78 27-27 24.95-27L24.95-27Q24-27 22.63-27.18 21.25-27.35 19.7-27.55L19.7-27.55Q19.15-24.55 18.57-20.38 18-16.2 17.63-11.4 17.25-6.6 17.15-1.65L17.15-1.65Q16.25-0.7 15.03-0.25 13.8 0.2 12.65 0.2ZM41.8 0.35L41.8 0.35Q38.15 0.35 35.75-1.13 33.35-2.6 32.15-5.03 30.95-7.45 30.95-10.25L30.95-10.25Q30.95-12.9 31.97-15.58 33-18.25 34.97-20.45 36.95-22.65 39.77-24 42.6-25.35 46.15-25.35L46.15-25.35Q50.55-25.35 52.57-23.38 54.6-21.4 54.6-18.6L54.6-18.6Q54.6-16.2 53.32-14.18 52.05-12.15 49.95-10.93 47.85-9.7 45.35-9.7L45.35-9.7Q44.05-9.7 42.7-10.1 41.35-10.5 40.05-11.35L40.05-11.35Q40.3-8.25 41.85-6.85 43.4-5.45 45.55-5.45L45.55-5.45Q47.05-5.45 48.55-6.03 50.05-6.6 51.32-7.53 52.6-8.45 53.3-9.5L53.3-9.5 53.65-9.25Q53.65-6.65 52.57-4.83 51.5-3 49.75-1.85 48-0.7 45.92-0.18 43.85 0.35 41.8 0.35ZM42.95-13.15L42.95-13.15Q44.55-13.15 45.55-14.08 46.55-15 47.05-16.25 47.55-17.5 47.55-18.45L47.55-18.45Q47.55-19.6 46.9-20.38 46.25-21.15 45.1-21.15L45.1-21.15Q44.2-21.15 43.12-20.5 42.05-19.85 41.2-18.28 40.35-16.7 40.1-13.9L40.1-13.9Q41.7-13.15 42.95-13.15ZM62.8 0.2L62.8 0.2Q61.45 0.2 60.17-0.48 58.89-1.15 58.09-2.65 57.3-4.15 57.3-6.5L57.3-6.5Q57.3-8.6 57.87-11.43 58.45-14.25 59.17-17.3 59.89-20.35 60.45-23.25 60.99-26.15 60.95-28.4L60.95-28.4Q60.95-30.55 60.45-31.45L60.45-31.45 60.39-31.6Q60.95-33.2 62.34-34.1 63.74-35 65.3-35L65.3-35Q67.05-35 68.42-33.68 69.8-32.35 69.8-29.25L69.8-29.25Q69.8-27.6 69.39-25.33 69-23.05 68.44-20.48 67.89-17.9 67.32-15.4 66.75-12.9 66.34-10.8 65.94-8.7 65.94-7.35L65.94-7.35Q65.94-5.95 66.34-5.43 66.75-4.9 67.25-4.9L67.25-4.9Q67.8-4.9 68.3-5.33 68.8-5.75 68.94-6.1L68.94-6.1 69.34-6Q69.3-4.2 68.32-2.8 67.34-1.4 65.87-0.6 64.39 0.2 62.8 0.2ZM78.24 0.2L78.24 0.2Q76.44 0.2 75.04-1.28 73.64-2.75 73.64-5.45L73.64-5.45Q73.64-6.75 73.94-8.4 74.24-10.05 74.64-11.78 75.04-13.5 75.34-15.03 75.64-16.55 75.64-17.55L75.64-17.55Q75.64-18.6 75.27-19.23 74.89-19.85 74.29-19.85L74.29-19.85Q73.34-19.85 72.34-18.55L72.34-18.55 72.04-18.75Q71.99-19.55 72.39-20.65 72.79-21.75 73.64-22.78 74.49-23.8 75.82-24.5 77.14-25.2 78.94-25.2L78.94-25.2Q81.59-25.2 82.79-23.68 83.99-22.15 83.99-20L83.99-20Q83.99-19.65 83.97-19.28 83.94-18.9 83.89-18.55L83.89-18.55Q85.69-21.8 87.67-23.53 89.64-25.25 91.34-25.25L91.34-25.25Q92.94-25.25 93.69-24 94.44-22.75 94.44-21L94.44-21Q94.44-19.4 93.82-17.75 93.19-16.1 91.97-15.03 90.74-13.95 88.99-14L88.99-14 88.79-14.1Q88.74-15.4 87.94-16.15 87.14-16.9 86.14-16.9L86.14-16.9Q84.79-16.9 83.62-15.55 82.44-14.2 82.44-11.65L82.44-11.65Q82.44-10.1 82.79-8.3 83.14-6.5 83.14-5.25L83.14-5.25Q83.14-3.75 82.44-2.5 81.74-1.25 80.64-0.53 79.54 0.2 78.24 0.2ZM105.59 0.35L105.59 0.35Q102.29 0.35 100.02-1.15 97.74-2.65 96.59-5.08 95.44-7.5 95.44-10.3L95.44-10.3Q95.44-12.95 96.47-15.6 97.49-18.25 99.49-20.48 101.49-22.7 104.36-24.03 107.24-25.35 110.99-25.35L110.99-25.35Q114.69-25.35 116.49-23.88 118.29-22.4 118.29-20.65L118.29-20.65Q118.29-18.8 116.44-17.25 114.59-15.7 111.04-15.7L111.04-15.7Q111.24-16.45 111.36-17.23 111.49-18 111.49-18.7L111.49-18.7Q111.49-19.75 111.04-20.48 110.59-21.2 109.44-21.2L109.44-21.2Q108.39-21.2 107.22-20.25 106.04-19.3 105.22-17.45 104.39-15.6 104.39-12.9L104.39-12.9Q104.39-10.25 105.27-8.6 106.14-6.95 107.54-6.23 108.94-5.5 110.49-5.5L110.49-5.5Q112.54-5.5 114.44-6.58 116.34-7.65 117.19-9.55L117.19-9.55 117.69-9.35Q117.69-6.75 116.52-4.93 115.34-3.1 113.49-1.93 111.64-0.75 109.54-0.2 107.44 0.35 105.59 0.35ZM125.39 0.2L125.39 0.2Q123.24 0.2 121.94-1.25 120.64-2.7 120.64-5.2L120.64-5.2Q120.64-6.55 120.99-8.72 121.34-10.9 121.86-13.53 122.39-16.15 122.89-18.88 123.39-21.6 123.74-24.15 124.09-26.7 124.09-28.65L124.09-28.65Q124.09-31.1 123.44-32.2L123.44-32.2 123.44-32.5Q124.54-33.75 125.84-34.35 127.14-34.95 128.39-34.95L128.39-34.95Q130.29-34.95 131.64-33.6 132.99-32.25 132.99-29.55L132.99-29.55Q132.99-28.1 132.59-26 132.19-23.9 131.64-21.6 131.09-19.3 130.54-17.3L130.54-17.3Q131.49-19.15 133.06-20.98 134.64-22.8 136.66-24 138.69-25.2 140.89-25.2L140.89-25.2Q143.39-25.2 144.26-23.65 145.14-22.1 145.14-19.8L145.14-19.8Q145.14-17.7 144.69-15.33 144.24-12.95 143.79-10.78 143.34-8.6 143.34-7.15L143.34-7.15Q143.34-5.05 144.59-5.05L144.59-5.05Q145.14-5.05 145.56-5.38 145.99-5.7 146.19-6.1L146.19-6.1 146.54-5.85Q146.54-3.9 145.59-2.55 144.64-1.2 143.16-0.5 141.69 0.2 140.14 0.2L140.14 0.2Q138.09 0.2 136.44-1.18 134.79-2.55 134.79-5.65L134.79-5.65Q134.79-7.4 135.26-9.45 135.74-11.5 136.19-13.43 136.64-15.35 136.64-16.65L136.64-16.65Q136.64-18.35 135.44-18.35L135.44-18.35Q134.34-18.35 133.04-17.25 131.74-16.15 130.76-14.5 129.79-12.85 129.49-11.25L129.49-11.25Q129.39-10.85 129.39-10.3L129.39-10.3Q129.39-9.05 129.76-7.9 130.14-6.75 130.14-5.2L130.14-5.2Q130.14-2.9 128.94-1.35 127.74 0.2 125.39 0.2ZM167.38 0.25L167.38 0.25Q165.63 0.25 164.34-0.9 163.03-2.05 163.03-4.65L163.03-4.65Q163.03-4.9 163.03-5.15 163.03-5.4 163.09-5.65L163.09-5.65Q161.59-2.65 159.71-1.23 157.84 0.2 155.94 0.2L155.94 0.2Q154.19 0.2 152.63-1.03 151.09-2.25 150.13-4.65 149.19-7.05 149.19-10.45L149.19-10.45Q149.19-13.95 150.16-16.7 151.13-19.45 152.74-21.35 154.34-23.25 156.24-24.23 158.13-25.2 159.94-25.2L159.94-25.2Q161.94-25.2 163.53-23.98 165.13-22.75 165.74-20.1L165.74-20.1Q165.88-20.95 165.96-21.65 166.03-22.35 166.03-22.6L166.03-22.6Q166.09-23.95 167.41-24.6 168.74-25.25 170.34-25.25L170.34-25.25Q171.74-25.25 172.99-24.7 174.24-24.15 174.69-22.85L174.69-22.85 174.78-22.55Q174.19-21.2 173.59-19.3 172.99-17.4 172.49-15.33 171.99-13.25 171.69-11.28 171.38-9.3 171.38-7.8L171.38-7.8Q171.38-6.15 171.74-5.53 172.09-4.9 172.59-4.9L172.59-4.9Q173.44-4.9 174.13-6.1L174.13-6.1 174.53-5.9Q174.53-4.2 173.44-2.8 172.34-1.4 170.69-0.58 169.03 0.25 167.38 0.25ZM159.24-6.1L159.24-6.1Q160.53-6.1 162.11-8.43 163.69-10.75 164.84-15.1L164.84-15.1Q164.94-15.55 165.03-15.98 165.13-16.4 165.19-16.8L165.19-16.8Q164.38-18.65 163.51-19.43 162.63-20.2 161.78-20.2L161.78-20.2Q160.53-20.2 159.46-18.88 158.38-17.55 157.71-15.55 157.03-13.55 157.03-11.55L157.03-11.55Q157.03-8.8 157.66-7.45 158.28-6.1 159.24-6.1ZM184.48 0.2L184.48 0.2Q182.88 0.2 181.46-0.53 180.03-1.25 179.16-2.8 178.28-4.35 178.28-6.75L178.28-6.75Q178.28-8.05 178.53-10.15 178.78-12.25 179.21-14.75 179.63-17.25 180.08-19.75L180.08-19.75Q179.08-19.7 178.16-19.55 177.23-19.4 176.33-19.2L176.33-19.2 176.23-19.55Q177.23-20.75 178.33-21.6 179.43-22.45 180.63-23L180.63-23Q181.28-26.3 181.73-28.73 182.18-31.15 182.18-31.6L182.18-31.6Q182.18-32.45 183.51-33 184.83-33.55 186.48-33.55L186.48-33.55Q187.93-33.55 189.21-33 190.48-32.45 190.93-31.15L190.93-31.15Q190.63-30.85 190.08-28.93 189.53-27 188.93-24.25L188.93-24.25Q189.88-24.2 190.88-24.15 191.88-24.1 192.93-24L192.93-24Q193.03-23.7 193.08-23.35 193.13-23 193.13-22.6L193.13-22.6Q193.13-21.85 192.91-20.98 192.68-20.1 192.38-19.4L192.38-19.4Q191.18-19.5 190.13-19.63 189.08-19.75 188.08-19.8L188.08-19.8Q187.68-17.65 187.36-15.5 187.03-13.35 186.86-11.6 186.68-9.85 186.68-8.85L186.68-8.85Q186.68-6.75 187.46-6.05 188.23-5.35 189.33-5.35L189.33-5.35Q190.33-5.35 191.13-5.75 191.93-6.15 192.28-6.7L192.28-6.7 192.78-6.55Q192.48-4.5 191.18-2.98 189.88-1.45 188.08-0.63 186.28 0.2 184.48 0.2Z"
                                                                opacity="1" transform="matrix(1,0,0,1,0,0)"
                                                                fill="#000000" class="wordmark-text-0"
                                                                data-fill-palette-color="primary" id="text-0"></path>
                                                        </svg></g>
                                                </svg></g>
                                            <g transform="matrix(1,0,0,1,0,93.56065741402354)"><svg
                                                    viewBox="0 0 232.20979200000002 17.95774455172414"
                                                    height="17.95774455172414" width="232.20979200000002">
                                                    <g transform="matrix(1,0,0,1,0,0)"><svg width="232.20979200000002"
                                                            viewBox="1.05 -37 495.84 38.35" height="17.95774455172414"
                                                            data-palette-color="#000000">
                                                            <path
                                                                d="M20.45-29.65L20.45-29.65Q18.3-30.7 15.4-30.7 12.5-30.7 10.85-30.45L10.85-30.45Q10.35-27.05 10.35-18.3L10.35-18.3Q12.5-17.9 14.55-17.9L14.55-17.9Q18.45-17.9 19.5-20.05L19.5-20.05 20.5-19.85Q20.05-18.25 20.05-16.03 20.05-13.8 20.35-11.65L20.35-11.65 19.2-11.45Q18.45-13.35 18.2-15.9L18.2-15.9Q16.35-16.05 14.35-16.05 12.35-16.05 10.35-15.8L10.35-15.8Q10.4-5.6 11-1.75L11-1.75Q13.5-1.5 16.5-0.8L16.5-0.8 16.35 0.4Q12.65 0 8.33 0 4 0 1.35 0.4L1.35 0.4 1.15-0.85Q3.4-1.55 5.95-1.9L5.95-1.9Q6.5-6 6.5-14.8L6.5-14.8 6.5-17.75Q6.5-23.25 5.85-30.65L5.85-30.65Q3.85-30.9 1.05-31.8L1.05-31.8 1.25-33.05Q6.45-32.55 13.2-32.55 19.95-32.55 24.9-33.1L24.9-33.1 25.1-32.1Q22.5-29.45 22.15-24.2L22.15-24.2 20.9-24.2Q20.45-26.35 20.45-29.65ZM37.95-0.55L37.85 0.4Q35.3 0 32.3 0 29.3 0 26.45 0.3L26.45 0.3 26.3-0.65Q27.8-1.3 29.25-1.65L29.25-1.65Q29.7-5.05 29.7-9.5L29.7-9.5 29.7-13.7Q29.7-18.3 29.35-21.85L29.35-21.85Q28.15-22.25 26.65-22.25L26.65-22.25 26.65-23.3Q29.85-23.45 33.4-24.25L33.4-24.25 33.75-24.05Q33.2-20.6 33.2-16.25L33.2-16.25 33.4-16.2Q34.1-18.2 35.97-20.83 37.85-23.45 39.45-24.25L39.45-24.25Q41.7-24.25 43.85-23.45L43.85-23.45 43.85-22.75Q41.95-20.35 41.7-16.5L41.7-16.5 40.6-16.5Q40.6-18.45 40.5-19.55L40.5-19.55Q39.85-20.05 38.8-20.05L38.8-20.05Q37.3-20.05 35.62-17.68 33.95-15.3 33.2-13.15L33.2-13.15Q33.2-5.9 33.75-1.5L33.75-1.5Q36.25-1.15 37.95-0.55L37.95-0.55ZM55.35-2.85L55.35-2.85Q58.5-2.85 61.5-5.5L61.5-5.5 62.05-5Q59.2-1.1 54.75 0.75L54.75 0.75Q50.35 0.75 48.15-2 45.95-4.75 45.95-9.65 45.95-14.55 48.7-18.78 51.45-23 56.05-24.25L56.05-24.25Q59.4-24.25 60.75-22.93 62.1-21.6 62.1-18.25L62.1-18.25Q62.1-16.35 61.6-15L61.6-15Q62.65-14.6 64.05-14.6L64.05-14.6 64-13.55Q63.7-13.55 63.35-13.55L63.35-13.55Q57.75-13.55 49.95-11.9L49.95-11.9Q49.95-5.25 52.55-3.6L52.55-3.6Q53.65-2.85 55.35-2.85ZM58.1-15.25Q58.1-18.55 57.47-19.85 56.85-21.15 54.85-21.15 52.85-21.15 51.4-19.95L51.4-19.95Q50.05-17.15 49.95-13.2L49.95-13.2Q54.05-14.55 58.1-15.25L58.1-15.25ZM76.64-2.85L76.64-2.85Q79.79-2.85 82.79-5.5L82.79-5.5 83.34-5Q80.49-1.1 76.04 0.75L76.04 0.75Q71.64 0.75 69.44-2 67.24-4.75 67.24-9.65 67.24-14.55 69.99-18.78 72.74-23 77.34-24.25L77.34-24.25Q80.69-24.25 82.04-22.93 83.39-21.6 83.39-18.25L83.39-18.25Q83.39-16.35 82.89-15L82.89-15Q83.94-14.6 85.34-14.6L85.34-14.6 85.29-13.55Q84.99-13.55 84.64-13.55L84.64-13.55Q79.04-13.55 71.24-11.9L71.24-11.9Q71.24-5.25 73.84-3.6L73.84-3.6Q74.94-2.85 76.64-2.85ZM79.39-15.25Q79.39-18.55 78.77-19.85 78.14-21.15 76.14-21.15 74.14-21.15 72.69-19.95L72.69-19.95Q71.34-17.15 71.24-13.2L71.24-13.2Q75.34-14.55 79.39-15.25L79.39-15.25ZM96.09-31.2L96.09-32.45 110.59-32.9Q120.89-32.9 120.89-24.7L120.89-24.7Q120.89-20.25 117.24-17.5 113.59-14.75 108.74-14.75L108.74-14.75Q107.99-14.75 107.64-14.8L107.64-14.8 107.84-16.4 108.44-16.4Q112.19-16.4 114.19-18.3 116.19-20.2 116.19-23.85 116.19-27.5 114.64-29.28 113.09-31.05 109.74-31.05L109.74-31.05Q107.74-31.05 105.84-30.4L105.84-30.4Q105.39-25.7 105.39-15.95 105.39-6.2 105.99-1.75L105.99-1.75Q108.64-1.5 111.49-0.8L111.49-0.8 111.34 0.4Q107.64 0 103.31 0 98.99 0 96.34 0.4L96.34 0.4 96.14-0.85Q98.39-1.55 100.94-1.9L100.94-1.9Q101.54-6 101.54-15.85 101.54-25.7 100.99-30.4L100.99-30.4Q98.59-31.2 96.09-31.2L96.09-31.2ZM134.19-0.55L134.09 0.4Q131.54 0 128.54 0 125.54 0 122.69 0.3L122.69 0.3 122.54-0.65Q124.04-1.3 125.49-1.65L125.49-1.65Q125.94-5.05 125.94-9.5L125.94-9.5 125.94-13.7Q125.94-18.3 125.59-21.85L125.59-21.85Q124.39-22.25 122.89-22.25L122.89-22.25 122.89-23.3Q126.09-23.45 129.64-24.25L129.64-24.25 129.99-24.05Q129.44-20.6 129.44-16.25L129.44-16.25 129.64-16.2Q130.34-18.2 132.21-20.83 134.09-23.45 135.69-24.25L135.69-24.25Q137.94-24.25 140.09-23.45L140.09-23.45 140.09-22.75Q138.19-20.35 137.94-16.5L137.94-16.5 136.84-16.5Q136.84-18.45 136.74-19.55L136.74-19.55Q136.09-20.05 135.04-20.05L135.04-20.05Q133.54-20.05 131.86-17.68 130.19-15.3 129.44-13.15L129.44-13.15Q129.44-5.9 129.99-1.5L129.99-1.5Q132.49-1.15 134.19-0.55L134.19-0.55ZM149.18-13.7L149.18-13.7 149.18-9.5Q149.18-4.1 149.53-1.5L149.53-1.5Q150.93-1.2 152.68-0.55L152.68-0.55 152.58 0.4Q149.78 0 147.28 0 144.78 0 142.23 0.3L142.23 0.3 142.08-0.65Q143.58-1.3 145.03-1.65L145.03-1.65Q145.48-5.05 145.48-9.5L145.48-9.5 145.48-13.7Q145.48-17.75 145.08-21.8L145.08-21.8Q143.78-22.2 142.38-22.2L142.38-22.2 142.38-23.25Q146.23-23.5 149.48-24.25L149.48-24.25 149.83-24.05Q149.18-20.2 149.18-13.7ZM150.08-31L150.08-31Q149.73-30.35 148.86-29.35 147.98-28.35 147.38-27.95L147.38-27.95Q146.78-28.35 145.91-29.35 145.03-30.35 144.68-31L144.68-31Q144.98-31.6 145.83-32.38 146.68-33.15 147.38-33.5L147.38-33.5Q148.03-33.1 148.88-32.33 149.73-31.55 150.08-31ZM176.18-19.75L176.18-19.75Q176.18-15.05 173.53-9.63 170.88-4.2 167.18-0.4L167.18-0.4Q165.83 0.25 164.23 0.75L164.23 0.75Q162.03 0.25 160.23-7.9L160.23-7.9Q159.48-11.45 158.78-15.78 158.08-20.1 157.63-21.8L157.63-21.8Q156.43-22.2 154.93-22.2L154.93-22.2 154.93-23.25Q158.28-23.4 162.03-24.25L162.03-24.25 162.38-24.05Q161.98-22.65 161.98-20.93 161.98-19.2 162.71-14.83 163.43-10.45 164.31-7.13 165.18-3.8 165.66-3.05 166.13-2.3 166.68-2.3L166.68-2.3Q169.53-5.8 170.86-9.28 172.18-12.75 172.18-17.1L172.18-17.1Q172.18-19.6 171.13-21.7L171.13-21.7Q169.68-22.15 168.33-22.15L168.33-22.15 168.38-23.2Q173.48-23.4 177.98-24.55L177.98-24.55 178.18-23.65Q177.53-23.15 175.78-22.25L175.78-22.25Q176.18-20.95 176.18-19.75ZM180.48-8.8L180.48-8.8Q180.48-14 183.28-18.32 186.08-22.65 190.78-24.25L190.78-24.25Q194.13-24.25 197.78-23.2L197.78-23.2Q198.48-24.25 198.93-25.85L198.93-25.85 199.98-25.55Q198.88-21.05 198.88-9.65L198.88-9.65Q198.88-4.55 199.23-1.65L199.23-1.65Q200.43-1.25 201.93-1.25L201.93-1.25 201.93-0.2Q198.73-0.05 195.18 0.75L195.18 0.75 194.83 0.55Q195.38-2.9 195.38-7.25L195.38-7.25 195.18-7.3Q193.43-4.8 191.03-2.45 188.63-0.1 186.48 0.75L186.48 0.75Q183.73 0.75 182.1-2.3 180.48-5.35 180.48-8.8ZM184.48-11.05L184.48-11.05Q184.48-8.6 185.35-5.98 186.23-3.35 187.88-3.35L187.88-3.35Q189.63-3.35 192.13-5.85 194.63-8.35 195.38-10.35L195.38-10.35Q195.38-17.8 195.03-19.95L195.03-19.95Q192.38-21.15 189.9-21.15 187.43-21.15 186.13-19.95L186.13-19.95Q184.48-16.15 184.48-11.05ZM212.18-9.75L212.18-9.75Q212.18-2.85 213.68-2.85L213.68-2.85Q216.43-2.85 219.38-5.5L219.38-5.5 219.88-5Q216.98-0.95 212.83 0.75L212.83 0.75Q209.98 0.75 209.18-1.85L209.18-1.85Q208.48-4.05 208.48-9.45L208.48-9.45Q208.48-10.4 208.48-11.5L208.48-11.5 208.68-21.45 205.98-21.45 205.88-21.55Q205.88-22.35 206.03-22.65L206.03-22.65Q210.23-25.4 211.53-28.35L211.53-28.35Q212.13-28.5 212.93-28.5L212.93-28.5 213.13-28.4Q212.63-25.4 212.53-23.55L212.53-23.55 219.53-23.8 219.73-23.6Q219.38-22.7 219.08-21.25L219.08-21.25Q216.53-21.4 212.38-21.4L212.38-21.4 212.18-11.5Q212.18-10.6 212.18-9.75ZM232.77-2.85L232.77-2.85Q235.92-2.85 238.92-5.5L238.92-5.5 239.47-5Q236.62-1.1 232.17 0.75L232.17 0.75Q227.77 0.75 225.57-2 223.37-4.75 223.37-9.65 223.37-14.55 226.12-18.78 228.87-23 233.47-24.25L233.47-24.25Q236.82-24.25 238.17-22.93 239.52-21.6 239.52-18.25L239.52-18.25Q239.52-16.35 239.02-15L239.02-15Q240.07-14.6 241.47-14.6L241.47-14.6 241.42-13.55Q241.12-13.55 240.77-13.55L240.77-13.55Q235.17-13.55 227.37-11.9L227.37-11.9Q227.37-5.25 229.97-3.6L229.97-3.6Q231.07-2.85 232.77-2.85ZM235.52-15.25Q235.52-18.55 234.9-19.85 234.27-21.15 232.27-21.15 230.27-21.15 228.82-19.95L228.82-19.95Q227.47-17.15 227.37-13.2L227.37-13.2Q231.47-14.55 235.52-15.25L235.52-15.25ZM266.37-3.2L266.37-3.2Q270.42-3.2 274.52-7.1L274.52-7.1 275.22-6.45Q271.07-1.15 265.32 0.75L265.32 0.75Q259.32 0.75 256.29-3.03 253.27-6.8 253.27-13.48 253.27-20.15 256.94-25.88 260.62-31.6 266.82-33.3L266.82-33.3Q271.87-33.3 277.12-32.35L277.12-32.35 277.07-31.25Q275.77-31.25 274.67-30.8L274.67-30.8Q273.42-27.85 273.02-23.9L273.02-23.9 271.77-23.9Q271.32-25.9 271.32-28.55L271.32-28.55Q268.97-29.8 265.69-29.8 262.42-29.8 260.27-28L260.27-28Q257.72-23.65 257.72-16.95L257.72-16.95Q257.72-6.95 262.02-4.3L262.02-4.3Q263.82-3.2 266.37-3.2ZM295.31-14.55L295.31-14.55Q295.31-20.15 293.01-20.15L293.01-20.15Q291.06-20.15 288.42-17.7 285.76-15.25 284.87-13.15L284.87-13.15Q284.87-5.9 285.42-1.5L285.42-1.5Q286.76-1.2 288.56-0.55L288.56-0.55 288.46 0.4Q285.67 0 283.17 0 280.67 0 278.12 0.3L278.12 0.3 277.96-0.65Q279.46-1.3 280.92-1.65L280.92-1.65Q281.37-5.05 281.37-9.5L281.37-9.5 281.37-18.8Q281.37-31.95 280.17-36.7L280.17-36.7 281.21-37Q281.67-35.4 282.37-34.35L282.37-34.35Q285.12-34.8 287.71-35.55L287.71-35.55 287.96-34.65Q287.01-33.9 285.62-33.2L285.62-33.2Q284.87-29.1 284.87-16.25L284.87-16.25 285.06-16.2Q286.76-18.55 289.49-21.03 292.21-23.5 294.42-24.25L294.42-24.25Q297.46-24.25 298.37-21.5L298.37-21.5Q298.96-19.55 298.96-16.7L298.96-16.7Q298.96-16.25 298.96-15.7L298.96-15.7 298.71-1.65Q299.92-1.25 301.42-1.25L301.42-1.25 301.42-0.2Q298.21-0.05 294.67 0.75L294.67 0.75 294.31 0.55Q295.12-4.3 295.26-13.45L295.26-13.45Q295.31-13.95 295.31-14.55ZM305.66-8.8L305.66-8.8Q305.66-14 308.46-18.32 311.26-22.65 315.96-24.25L315.96-24.25Q319.31-24.25 322.96-23.2L322.96-23.2Q323.66-24.25 324.11-25.85L324.11-25.85 325.16-25.55Q324.06-21.05 324.06-9.65L324.06-9.65Q324.06-4.55 324.41-1.65L324.41-1.65Q325.61-1.25 327.11-1.25L327.11-1.25 327.11-0.2Q323.91-0.05 320.36 0.75L320.36 0.75 320.01 0.55Q320.56-2.9 320.56-7.25L320.56-7.25 320.36-7.3Q318.61-4.8 316.21-2.45 313.81-0.1 311.66 0.75L311.66 0.75Q308.91 0.75 307.29-2.3 305.66-5.35 305.66-8.8ZM309.66-11.05L309.66-11.05Q309.66-8.6 310.54-5.98 311.41-3.35 313.06-3.35L313.06-3.35Q314.81-3.35 317.31-5.85 319.81-8.35 320.56-10.35L320.56-10.35Q320.56-17.8 320.21-19.95L320.21-19.95Q317.56-21.15 315.09-21.15 312.61-21.15 311.31-19.95L311.31-19.95Q309.66-16.15 309.66-11.05ZM337.36-9.75L337.36-9.75Q337.36-2.85 338.86-2.85L338.86-2.85Q341.61-2.85 344.56-5.5L344.56-5.5 345.06-5Q342.16-0.95 338.01 0.75L338.01 0.75Q335.16 0.75 334.36-1.85L334.36-1.85Q333.66-4.05 333.66-9.45L333.66-9.45Q333.66-10.4 333.66-11.5L333.66-11.5 333.86-21.45 331.16-21.45 331.06-21.55Q331.06-22.35 331.21-22.65L331.21-22.65Q335.41-25.4 336.71-28.35L336.71-28.35Q337.31-28.5 338.11-28.5L338.11-28.5 338.31-28.4Q337.81-25.4 337.71-23.55L337.71-23.55 344.71-23.8 344.91-23.6Q344.56-22.7 344.26-21.25L344.26-21.25Q341.71-21.4 337.56-21.4L337.56-21.4 337.36-11.5Q337.36-10.6 337.36-9.75ZM360.7-8.3L360.75-6.5 360.86-4.5 360.86-4.35Q363.7-3.2 366.56-3.2 369.41-3.2 371.08-4.53 372.75-5.85 372.75-8.4L372.75-8.4Q372.75-9.9 370.61-11.78 368.45-13.65 365.86-15.15 363.25-16.65 361.11-18.57 358.95-20.5 358.95-22.1L358.95-22.1Q358.95-25.6 362.18-28.88 365.41-32.15 369.25-33.3L369.25-33.3Q373.56-33.3 377.41-32.45L377.41-32.45 377.41-31.45Q374.81-29.05 374.5-24.05L374.5-24.05 373.25-24.05Q373.25-26.7 373-28.7L373-28.7Q370.86-29.7 368.23-29.7 365.61-29.7 363.95-28.6 362.31-27.5 362.31-25.45L362.31-25.45Q362.31-23.95 364.45-22.1 366.61-20.25 369.18-18.78 371.75-17.3 373.91-15.4 376.06-13.5 376.06-11.9L376.06-11.9Q376.06-8.25 372.83-4.5 369.61-0.75 365.81 0.75L365.81 0.75Q361.86 0.75 358.45-0.15L358.45-0.15Q357.41 0.35 356.36 1.35L356.36 1.35 355.61 0.65Q359.06-3 359.45-9L359.45-9 360.7-9 360.7-8.3ZM390.2-2.85L390.2-2.85Q393.35-2.85 396.35-5.5L396.35-5.5 396.9-5Q394.05-1.1 389.6 0.75L389.6 0.75Q385.2 0.75 383-2 380.8-4.75 380.8-9.65 380.8-14.55 383.55-18.78 386.3-23 390.9-24.25L390.9-24.25Q394.25-24.25 395.6-22.93 396.95-21.6 396.95-18.25L396.95-18.25Q396.95-16.35 396.45-15L396.45-15Q397.5-14.6 398.9-14.6L398.9-14.6 398.85-13.55Q398.55-13.55 398.2-13.55L398.2-13.55Q392.6-13.55 384.8-11.9L384.8-11.9Q384.8-5.25 387.4-3.6L387.4-3.6Q388.5-2.85 390.2-2.85ZM392.95-15.25Q392.95-18.55 392.33-19.85 391.7-21.15 389.7-21.15 387.7-21.15 386.25-19.95L386.25-19.95Q384.9-17.15 384.8-13.2L384.8-13.2Q388.9-14.55 392.95-15.25L392.95-15.25ZM413.15-0.55L413.05 0.4Q410.5 0 407.5 0 404.5 0 401.65 0.3L401.65 0.3 401.5-0.65Q403-1.3 404.45-1.65L404.45-1.65Q404.9-5.05 404.9-9.5L404.9-9.5 404.9-13.7Q404.9-18.3 404.55-21.85L404.55-21.85Q403.35-22.25 401.85-22.25L401.85-22.25 401.85-23.3Q405.05-23.45 408.6-24.25L408.6-24.25 408.95-24.05Q408.4-20.6 408.4-16.25L408.4-16.25 408.6-16.2Q409.3-18.2 411.18-20.83 413.05-23.45 414.65-24.25L414.65-24.25Q416.9-24.25 419.05-23.45L419.05-23.45 419.05-22.75Q417.15-20.35 416.9-16.5L416.9-16.5 415.8-16.5Q415.8-18.45 415.7-19.55L415.7-19.55Q415.05-20.05 414-20.05L414-20.05Q412.5-20.05 410.83-17.68 409.15-15.3 408.4-13.15L408.4-13.15Q408.4-5.9 408.95-1.5L408.95-1.5Q411.45-1.15 413.15-0.55L413.15-0.55ZM440.8-19.75L440.8-19.75Q440.8-15.05 438.15-9.63 435.5-4.2 431.8-0.4L431.8-0.4Q430.45 0.25 428.85 0.75L428.85 0.75Q426.65 0.25 424.85-7.9L424.85-7.9Q424.1-11.45 423.4-15.78 422.7-20.1 422.25-21.8L422.25-21.8Q421.05-22.2 419.55-22.2L419.55-22.2 419.55-23.25Q422.9-23.4 426.65-24.25L426.65-24.25 427-24.05Q426.6-22.65 426.6-20.93 426.6-19.2 427.32-14.83 428.05-10.45 428.92-7.13 429.8-3.8 430.27-3.05 430.75-2.3 431.3-2.3L431.3-2.3Q434.15-5.8 435.47-9.28 436.8-12.75 436.8-17.1L436.8-17.1Q436.8-19.6 435.75-21.7L435.75-21.7Q434.3-22.15 432.95-22.15L432.95-22.15 433-23.2Q438.1-23.4 442.6-24.55L442.6-24.55 442.8-23.65Q442.15-23.15 440.4-22.25L440.4-22.25Q440.8-20.95 440.8-19.75ZM452.1-13.7L452.1-13.7 452.1-9.5Q452.1-4.1 452.45-1.5L452.45-1.5Q453.85-1.2 455.6-0.55L455.6-0.55 455.5 0.4Q452.7 0 450.2 0 447.7 0 445.15 0.3L445.15 0.3 445-0.65Q446.5-1.3 447.95-1.65L447.95-1.65Q448.4-5.05 448.4-9.5L448.4-9.5 448.4-13.7Q448.4-17.75 448-21.8L448-21.8Q446.7-22.2 445.3-22.2L445.3-22.2 445.3-23.25Q449.15-23.5 452.4-24.25L452.4-24.25 452.75-24.05Q452.1-20.2 452.1-13.7ZM453-31L453-31Q452.65-30.35 451.77-29.35 450.9-28.35 450.3-27.95L450.3-27.95Q449.7-28.35 448.82-29.35 447.95-30.35 447.6-31L447.6-31Q447.9-31.6 448.75-32.38 449.6-33.15 450.3-33.5L450.3-33.5Q450.95-33.1 451.8-32.33 452.65-31.55 453-31ZM468.84-2.85L468.84-2.85Q471.59-2.85 474.54-5.5L474.54-5.5 475.04-5Q472.14-0.95 467.99 0.75L467.99 0.75Q463.64 0.75 461.54-2 459.44-4.75 459.44-9.7 459.44-14.65 462.24-18.85 465.04-23.05 469.54-24.25L469.54-24.25Q472.59-24.25 475.59-23.45L475.59-23.45 475.59-22.75Q473.64-20.35 473.44-17.5L473.44-17.5 472.34-17.5Q472.34-19.45 472.24-20.55L472.24-20.55Q470.19-21.15 468.19-21.15 466.19-21.15 464.89-19.95L464.89-19.95Q463.44-16.9 463.44-12.25L463.44-12.25Q463.44-5.25 465.99-3.6L465.99-3.6Q467.14-2.85 468.84-2.85ZM488.19-2.85L488.19-2.85Q491.34-2.85 494.34-5.5L494.34-5.5 494.89-5Q492.04-1.1 487.59 0.75L487.59 0.75Q483.19 0.75 480.99-2 478.79-4.75 478.79-9.65 478.79-14.55 481.54-18.78 484.29-23 488.89-24.25L488.89-24.25Q492.24-24.25 493.59-22.93 494.94-21.6 494.94-18.25L494.94-18.25Q494.94-16.35 494.44-15L494.44-15Q495.49-14.6 496.89-14.6L496.89-14.6 496.84-13.55Q496.54-13.55 496.19-13.55L496.19-13.55Q490.59-13.55 482.79-11.9L482.79-11.9Q482.79-5.25 485.39-3.6L485.39-3.6Q486.49-2.85 488.19-2.85ZM490.94-15.25Q490.94-18.55 490.32-19.85 489.69-21.15 487.69-21.15 485.69-21.15 484.24-19.95L484.24-19.95Q482.89-17.15 482.79-13.2L482.79-13.2Q486.89-14.55 490.94-15.25L490.94-15.25Z"
                                                                opacity="1" transform="matrix(1,0,0,1,0,0)"
                                                                fill="#000000" class="slogan-text-1"
                                                                data-fill-palette-color="secondary" id="text-1"></path>
                                                        </svg></g>
                                                </svg></g>
                                        </svg></g>
                                </svg></g>
                            <g><svg viewBox="0 0 226.68337604475406 226.68337604475406" height="226.68337604475406"
                                    width="226.68337604475406">
                                    <g><svg></svg></g>
                                    <g id="icon-0"><svg viewBox="0 0 226.68337604475406 226.68337604475406"
                                            height="226.68337604475406" width="226.68337604475406">
                                            <g>
                                                <path
                                                    d="M0 113.342c0-62.597 50.745-113.342 113.342-113.342 62.597 0 113.342 50.745 113.341 113.342 0 62.597-50.745 113.342-113.341 113.341-62.597 0-113.342-50.745-113.342-113.341zM113.342 219.857c58.827 0 106.516-47.689 106.515-106.515 0-58.827-47.689-106.516-106.515-106.516-58.827 0-106.516 47.689-106.516 106.516 0 58.827 47.689 106.516 106.516 106.515z"
                                                    data-fill-palette-color="accent" fill="#0191da"
                                                    stroke="transparent"></path>
                                            </g>
                                            <g transform="matrix(1,0,0,1,48.345863711819376,48.345863711819376)"><svg
                                                    viewBox="0 0 129.9916486211153 129.9916486211153"
                                                    height="129.9916486211153" width="129.9916486211153">
                                                    <g><svg xmlns="http://www.w3.org/2000/svg"
                                                            xmlns:xlink="http://www.w3.org/1999/xlink" version="1.1"
                                                            x="0" y="0" viewBox="0 0 100 100"
                                                            style="enable-background:new 0 0 100 100;"
                                                            xml:space="preserve" height="129.9916486211153"
                                                            width="129.9916486211153" class="icon-dxe-0"
                                                            data-fill-palette-color="accent" id="dxe-0">
                                                            <g fill="#0191da" data-fill-palette-color="accent">
                                                                <path
                                                                    d="M74.988 37.5C74.988 51.307 63.806 62.5 50 62.5 50 55.604 44.396 50 37.5 50H24.988C12.5 50 0 42.969 0 25 0 6.641 12.5 0 24.988 0H50C62.5 0 74.988 7.745 74.988 25z"
                                                                    fill="#0191da" data-fill-palette-color="accent">
                                                                </path>
                                                            </g>
                                                            <path d="M37.5 37.5" fill="#0191da"
                                                                data-fill-palette-color="accent"></path>
                                                            <path d="M37.5 37.5" fill="#0191da"
                                                                data-fill-palette-color="accent"></path>
                                                            <g fill="#0191da" data-fill-palette-color="accent">
                                                                <g fill="#0191da" data-fill-palette-color="accent">
                                                                    <path
                                                                        d="M81.189 38.165C80.822 55.078 66.992 68.75 50 68.75H43.75V62.5A6.26 6.26 0 0 0 37.5 56.25H25.623A31.3 31.3 0 0 0 24.988 62.5V75C24.988 88.807 36.193 100 50 100 50 93.091 55.604 87.5 62.5 87.5H74.988C87.5 87.5 100 80.469 100 62.5 100 47.211 91.297 40.125 81.189 38.165"
                                                                        fill="#0191da" data-fill-palette-color="accent">
                                                                    </path>
                                                                </g>
                                                            </g>
                                                        </svg></g>
                                                </svg></g>
                                        </svg></g>
                                </svg></g>
                        </svg></g>
                    <defs></defs>
                </svg>
                <rect width="395.52" height="136.27021456335314" fill="none" stroke="none" visibility="hidden"></rect>
            </g>
        </svg></g>
</svg>