<svg xmlns="http://www.w3.org/2000/svg" version="1.1" width="691px" height="691px"
    style="shape-rendering:geometricPrecision; text-rendering:geometricPrecision; image-rendering:optimizeQuality; fill-rule:evenodd; clip-rule:evenodd"
    xmlns:xlink="http://www.w3.org/1999/xlink">
    <g>
        <path style="opacity:0.966" fill="#0191da"
            d="M 335.5,0.5 C 440.715,-0.289392 529.215,37.3773 601,113.5C 681.301,207.385 706.968,314.718 678,435.5C 647.948,538.549 584.448,613.049 487.5,659C 385.459,701.928 284.792,698.928 185.5,650C 81.8979,592.312 21.3979,504.479 4,386.5C -7.24826,266.53 31.2517,166.03 119.5,85C 181.774,32.4008 253.774,4.23409 335.5,0.5 Z M 328.5,22.5 C 443.486,20.2515 535.986,64.2515 606,154.5C 663.742,236.884 681.075,327.217 658,425.5C 634.242,511.895 584.075,578.062 507.5,624C 419.32,672.704 327.653,680.371 232.5,647C 150.425,614.257 90.2584,558.09 52,478.5C 14,389.5 14,300.5 52,211.5C 100.274,112.412 178.44,51.2455 286.5,28C 300.572,25.564 314.572,23.7307 328.5,22.5 Z" />
    </g>
    <g>
        <path style="opacity:0.994" fill="#0191da"
            d="M 234.5,147.5 C 275.501,147.333 316.501,147.5 357.5,148C 399.928,152.61 427.762,175.11 441,215.5C 442.258,221.122 443.258,226.789 444,232.5C 444.667,257.5 444.667,282.5 444,307.5C 437.5,349.668 414,377.502 373.5,391C 364.322,393.43 354.989,394.597 345.5,394.5C 342.999,367.833 328.665,351.666 302.5,346C 280.167,345.667 257.833,345.333 235.5,345C 200.487,342.434 174.653,325.934 158,295.5C 151.05,279.915 147.883,263.582 148.5,246.5C 148.751,188.594 177.417,155.594 234.5,147.5 Z" />
    </g>
    <g>
        <path style="opacity:0.991" fill="#0191da"
            d="M 468.5,297.5 C 508.327,305.16 532.494,328.827 541,368.5C 547.408,400.392 542.075,430.059 525,457.5C 506.239,479.997 482.072,491.83 452.5,493C 430.833,493.333 409.167,493.667 387.5,494C 361.715,499.95 348.048,516.116 346.5,542.5C 299.379,540.533 267.546,517.533 251,473.5C 249.024,466.621 247.691,459.621 247,452.5C 245.981,424.788 246.481,397.121 248.5,369.5C 266.836,369.333 285.17,369.5 303.5,370C 312.401,373.235 318.234,379.402 321,388.5C 321.5,398.494 321.666,408.494 321.5,418.5C 372.191,423.789 413.358,406.789 445,367.5C 459.512,346.463 467.346,323.13 468.5,297.5 Z" />
    </g>
</svg>