<svg width="2000" height="2000" xmlns="http://www.w3.org/2000/svg" version="1.1">
    <g>
        <path stroke="null" id="svg_214"
            d="m35.12872,536.02228l0,0c0,-77.19259 99.20829,-139.76955 221.58791,-139.76955l100.72183,0l0,0l483.46464,0l906.49595,0c58.76892,0 115.13063,14.72565 156.68652,40.93755c41.55563,26.2119 64.90152,61.76284 64.90152,98.832l0,349.4239l0,0l0,209.65428l0,0c0,77.19263 -99.20823,139.76955 -221.58797,139.76955l-906.49595,0l-631.58689,355.40147l148.12225,-355.40147l-100.72183,0c-122.37961,0 -221.58791,-62.57691 -221.58791,-139.76955l0,0l0,-209.65428l0,0l-0.00006,-349.4239z"
            fill="#000000" />
    </g>
</svg>